<svg xmlns="http://www.w3.org/2000/svg" xmlns:xlink="http://www.w3.org/1999/xlink" width="494pt" height="404pt" viewBox="0.00 0.00 494.00 404.00">
<g id="graph0" class="graph" transform="scale(1 1) rotate(0) translate(4 400)">
<title>G</title>
<polygon fill="white" stroke="none" points="-4,4 -4,-400 490,-400 490,4 -4,4"/>
<!-- 1 -->
<g id="node1" class="node">
<title>1</title>
<ellipse fill="#c0c0c0" stroke="#c0c0c0" cx="279" cy="-378" rx="27" ry="18"/>
<text text-anchor="middle" x="279" y="-373.8" font-family="Times,serif" font-size="14.00">1</text>
</g>
<!-- 2 -->
<g id="node2" class="node">
<title>2</title>
<ellipse fill="#c0c0f0" stroke="#c0c0f0" cx="279" cy="-306" rx="27" ry="18"/>
<text text-anchor="middle" x="279" y="-301.8" font-family="Times,serif" font-size="14.00">A</text>
</g>
<!-- 1&#45;&gt;2 -->
<g id="edge1" class="edge">
<title>1-&gt;2</title>
<path fill="none" stroke="black" d="M279,-359.7C279,-352.41 279,-343.73 279,-335.54"/>
<polygon fill="black" stroke="black" points="282.5,-335.62 279,-325.62 275.5,-335.62 282.5,-335.62"/>
<text text-anchor="middle" x="219.5" y="-346.33" font-family="Times,serif" font-size="14.00">v0 v1 v2 v3 v4 v5 v6</text>
</g>
<!-- 3 -->
<g id="node3" class="node">
<title>3</title>
<ellipse fill="#c0c0f0" stroke="#c0c0f0" cx="99" cy="-234" rx="27" ry="18"/>
<text text-anchor="middle" x="99" y="-229.8" font-family="Times,serif" font-size="14.00">B</text>
</g>
<!-- 2&#45;&gt;3 -->
<g id="edge2" class="edge">
<title>2-&gt;3</title>
<path fill="none" stroke="black" d="M256.2,-296.13C224.91,-283.97 168.44,-262 132.38,-247.98"/>
<polygon fill="black" stroke="black" points="133.89,-244.81 123.31,-244.45 131.36,-251.34 133.89,-244.81"/>
<text text-anchor="middle" x="173.45" y="-274.28" font-family="Times,serif" font-size="14.00">v3 v6</text>
</g>
<!-- 8 -->
<g id="node8" class="node">
<title>8</title>
<ellipse fill="#c0c0f0" stroke="#c0c0f0" cx="243" cy="-234" rx="27" ry="18"/>
<text text-anchor="middle" x="243" y="-229.8" font-family="Times,serif" font-size="14.00">P</text>
</g>
<!-- 2&#45;&gt;8 -->
<g id="edge7" class="edge">
<title>2-&gt;8</title>
<path fill="none" stroke="black" d="M270.65,-288.76C266.42,-280.55 261.19,-270.37 256.42,-261.09"/>
<polygon fill="black" stroke="black" points="259.68,-259.79 252,-252.49 253.46,-262.99 259.68,-259.79"/>
<text text-anchor="middle" x="245.23" y="-274.17" font-family="Times,serif" font-size="14.00">v4 v5</text>
</g>
<!-- 13 -->
<g id="node13" class="node">
<title>13</title>
<ellipse fill="#c0c0f0" stroke="#c0c0f0" cx="315" cy="-234" rx="27" ry="18"/>
<text text-anchor="middle" x="315" y="-229.8" font-family="Times,serif" font-size="14.00">V</text>
</g>
<!-- 2&#45;&gt;13 -->
<g id="edge12" class="edge">
<title>2-&gt;13</title>
<path fill="none" stroke="black" d="M287.35,-288.76C291.58,-280.55 296.81,-270.37 301.58,-261.09"/>
<polygon fill="black" stroke="black" points="304.54,-262.99 306,-252.49 298.32,-259.79 304.54,-262.99"/>
<text text-anchor="middle" x="290.02" y="-274.17" font-family="Times,serif" font-size="14.00">v2</text>
</g>
<!-- 16 -->
<g id="node16" class="node">
<title>16</title>
<ellipse fill="#c0c0f0" stroke="#c0c0f0" cx="387" cy="-234" rx="27" ry="18"/>
<text text-anchor="middle" x="387" y="-229.8" font-family="Times,serif" font-size="14.00">R</text>
</g>
<!-- 2&#45;&gt;16 -->
<g id="edge15" class="edge">
<title>2-&gt;16</title>
<path fill="none" stroke="black" d="M297.81,-292.81C314.59,-281.93 339.39,-265.86 358.59,-253.42"/>
<polygon fill="black" stroke="black" points="360.28,-256.49 366.77,-248.11 356.48,-250.61 360.28,-256.49"/>
<text text-anchor="middle" x="317.08" y="-274.31" font-family="Times,serif" font-size="14.00">v0 v1</text>
</g>
<!-- 4 -->
<g id="node4" class="node">
<title>4</title>
<ellipse fill="#c0c0f0" stroke="#c0c0f0" cx="27" cy="-162" rx="27" ry="18"/>
<text text-anchor="middle" x="27" y="-157.8" font-family="Times,serif" font-size="14.00">C</text>
</g>
<!-- 3&#45;&gt;4 -->
<g id="edge3" class="edge">
<title>3-&gt;4</title>
<path fill="none" stroke="black" d="M84.08,-218.5C74.23,-208.92 61.14,-196.19 49.97,-185.34"/>
<polygon fill="black" stroke="black" points="52.59,-183 42.98,-178.54 47.71,-188.02 52.59,-183"/>
<text text-anchor="middle" x="55.8" y="-202" font-family="Times,serif" font-size="14.00">v6</text>
</g>
<!-- 6 -->
<g id="node6" class="node">
<title>6</title>
<ellipse fill="#c0c0f0" stroke="#c0c0f0" cx="99" cy="-162" rx="27" ry="18"/>
<text text-anchor="middle" x="99" y="-157.8" font-family="Times,serif" font-size="14.00">D</text>
</g>
<!-- 3&#45;&gt;6 -->
<g id="edge5" class="edge">
<title>3-&gt;6</title>
<path fill="none" stroke="black" d="M99,-215.7C99,-208.41 99,-199.73 99,-191.54"/>
<polygon fill="black" stroke="black" points="102.5,-191.62 99,-181.62 95.5,-191.62 102.5,-191.62"/>
<text text-anchor="middle" x="92" y="-202.33" font-family="Times,serif" font-size="14.00">v3</text>
</g>
<!-- 5 -->
<g id="node5" class="node">
<title>5</title>
<ellipse fill="#c0c0f0" stroke="#c0c0f0" cx="27" cy="-90" rx="27" ry="18"/>
<text text-anchor="middle" x="27" y="-85.8" font-family="Times,serif" font-size="14.00">D</text>
</g>
<!-- 4&#45;&gt;5 -->
<g id="edge4" class="edge">
<title>4-&gt;5</title>
<path fill="none" stroke="black" d="M27,-143.7C27,-136.41 27,-127.73 27,-119.54"/>
<polygon fill="black" stroke="black" points="30.5,-119.62 27,-109.62 23.5,-119.62 30.5,-119.62"/>
<text text-anchor="middle" x="20" y="-130.33" font-family="Times,serif" font-size="14.00">v6</text>
</g>
<!-- 7 -->
<g id="node7" class="node">
<title>7</title>
<ellipse fill="#c0c0f0" stroke="#c0c0f0" cx="99" cy="-90" rx="27" ry="18"/>
<text text-anchor="middle" x="99" y="-85.8" font-family="Times,serif" font-size="14.00">C</text>
</g>
<!-- 6&#45;&gt;7 -->
<g id="edge6" class="edge">
<title>6-&gt;7</title>
<path fill="none" stroke="black" d="M99,-143.7C99,-136.41 99,-127.73 99,-119.54"/>
<polygon fill="black" stroke="black" points="102.5,-119.62 99,-109.62 95.5,-119.62 102.5,-119.62"/>
<text text-anchor="middle" x="92" y="-130.33" font-family="Times,serif" font-size="14.00">v3</text>
</g>
<!-- 9 -->
<g id="node9" class="node">
<title>9</title>
<ellipse fill="#c0c0f0" stroke="#c0c0f0" cx="171" cy="-162" rx="27" ry="18"/>
<text text-anchor="middle" x="171" y="-157.8" font-family="Times,serif" font-size="14.00">C</text>
</g>
<!-- 8&#45;&gt;9 -->
<g id="edge8" class="edge">
<title>8-&gt;9</title>
<path fill="none" stroke="black" d="M228.08,-218.5C218.23,-208.92 205.14,-196.19 193.97,-185.34"/>
<polygon fill="black" stroke="black" points="196.59,-183 186.98,-178.54 191.71,-188.02 196.59,-183"/>
<text text-anchor="middle" x="199.8" y="-202" font-family="Times,serif" font-size="14.00">v5</text>
</g>
<!-- 11 -->
<g id="node11" class="node">
<title>11</title>
<ellipse fill="#c0c0f0" stroke="#c0c0f0" cx="243" cy="-162" rx="27" ry="18"/>
<text text-anchor="middle" x="243" y="-157.8" font-family="Times,serif" font-size="14.00">D</text>
</g>
<!-- 8&#45;&gt;11 -->
<g id="edge10" class="edge">
<title>8-&gt;11</title>
<path fill="none" stroke="black" d="M243,-215.7C243,-208.41 243,-199.73 243,-191.54"/>
<polygon fill="black" stroke="black" points="246.5,-191.62 243,-181.62 239.5,-191.62 246.5,-191.62"/>
<text text-anchor="middle" x="236" y="-202.33" font-family="Times,serif" font-size="14.00">v4</text>
</g>
<!-- 10 -->
<g id="node10" class="node">
<title>10</title>
<ellipse fill="#c0c0f0" stroke="#c0c0f0" cx="171" cy="-90" rx="27" ry="18"/>
<text text-anchor="middle" x="171" y="-85.8" font-family="Times,serif" font-size="14.00">D</text>
</g>
<!-- 9&#45;&gt;10 -->
<g id="edge9" class="edge">
<title>9-&gt;10</title>
<path fill="none" stroke="black" d="M171,-143.7C171,-136.41 171,-127.73 171,-119.54"/>
<polygon fill="black" stroke="black" points="174.5,-119.62 171,-109.62 167.5,-119.62 174.5,-119.62"/>
<text text-anchor="middle" x="164" y="-130.33" font-family="Times,serif" font-size="14.00">v5</text>
</g>
<!-- 12 -->
<g id="node12" class="node">
<title>12</title>
<ellipse fill="#c0c0f0" stroke="#c0c0f0" cx="243" cy="-90" rx="27" ry="18"/>
<text text-anchor="middle" x="243" y="-85.8" font-family="Times,serif" font-size="14.00">C</text>
</g>
<!-- 11&#45;&gt;12 -->
<g id="edge11" class="edge">
<title>11-&gt;12</title>
<path fill="none" stroke="black" d="M243,-143.7C243,-136.41 243,-127.73 243,-119.54"/>
<polygon fill="black" stroke="black" points="246.5,-119.62 243,-109.62 239.5,-119.62 246.5,-119.62"/>
<text text-anchor="middle" x="236" y="-130.33" font-family="Times,serif" font-size="14.00">v4</text>
</g>
<!-- 14 -->
<g id="node14" class="node">
<title>14</title>
<ellipse fill="#c0c0f0" stroke="#c0c0f0" cx="315" cy="-162" rx="27" ry="18"/>
<text text-anchor="middle" x="315" y="-157.8" font-family="Times,serif" font-size="14.00">D</text>
</g>
<!-- 13&#45;&gt;14 -->
<g id="edge13" class="edge">
<title>13-&gt;14</title>
<path fill="none" stroke="black" d="M315,-215.7C315,-208.41 315,-199.73 315,-191.54"/>
<polygon fill="black" stroke="black" points="318.5,-191.62 315,-181.62 311.5,-191.62 318.5,-191.62"/>
<text text-anchor="middle" x="308" y="-202.33" font-family="Times,serif" font-size="14.00">v2</text>
</g>
<!-- 15 -->
<g id="node15" class="node">
<title>15</title>
<ellipse fill="#c0c0f0" stroke="#c0c0f0" cx="315" cy="-90" rx="27" ry="18"/>
<text text-anchor="middle" x="315" y="-85.8" font-family="Times,serif" font-size="14.00">C</text>
</g>
<!-- 14&#45;&gt;15 -->
<g id="edge14" class="edge">
<title>14-&gt;15</title>
<path fill="none" stroke="black" d="M315,-143.7C315,-136.41 315,-127.73 315,-119.54"/>
<polygon fill="black" stroke="black" points="318.5,-119.62 315,-109.62 311.5,-119.62 318.5,-119.62"/>
<text text-anchor="middle" x="308" y="-130.33" font-family="Times,serif" font-size="14.00">v2</text>
</g>
<!-- 17 -->
<g id="node17" class="node">
<title>17</title>
<ellipse fill="#c0c0f0" stroke="#c0c0f0" cx="387" cy="-162" rx="27" ry="18"/>
<text text-anchor="middle" x="387" y="-157.8" font-family="Times,serif" font-size="14.00">D</text>
</g>
<!-- 16&#45;&gt;17 -->
<g id="edge16" class="edge">
<title>16-&gt;17</title>
<path fill="none" stroke="black" d="M387,-215.7C387,-208.41 387,-199.73 387,-191.54"/>
<polygon fill="black" stroke="black" points="390.5,-191.62 387,-181.62 383.5,-191.62 390.5,-191.62"/>
<text text-anchor="middle" x="380" y="-202.33" font-family="Times,serif" font-size="14.00">v1</text>
</g>
<!-- 19 -->
<g id="node19" class="node">
<title>19</title>
<ellipse fill="#c0c0f0" stroke="#c0c0f0" cx="459" cy="-162" rx="27" ry="18"/>
<text text-anchor="middle" x="459" y="-157.8" font-family="Times,serif" font-size="14.00">Z</text>
</g>
<!-- 16&#45;&gt;19 -->
<g id="edge18" class="edge">
<title>16-&gt;19</title>
<path fill="none" stroke="black" d="M401.92,-218.5C411.77,-208.92 424.86,-196.19 436.03,-185.34"/>
<polygon fill="black" stroke="black" points="438.29,-188.02 443.02,-178.54 433.41,-183 438.29,-188.02"/>
<text text-anchor="middle" x="416.2" y="-202" font-family="Times,serif" font-size="14.00">v0</text>
</g>
<!-- 18 -->
<g id="node18" class="node">
<title>18</title>
<ellipse fill="#c0c0f0" stroke="#c0c0f0" cx="387" cy="-90" rx="27" ry="18"/>
<text text-anchor="middle" x="387" y="-85.8" font-family="Times,serif" font-size="14.00">C</text>
</g>
<!-- 17&#45;&gt;18 -->
<g id="edge17" class="edge">
<title>17-&gt;18</title>
<path fill="none" stroke="black" d="M387,-143.7C387,-136.41 387,-127.73 387,-119.54"/>
<polygon fill="black" stroke="black" points="390.5,-119.62 387,-109.62 383.5,-119.62 390.5,-119.62"/>
<text text-anchor="middle" x="380" y="-130.33" font-family="Times,serif" font-size="14.00">v1</text>
</g>
<!-- 20 -->
<g id="node20" class="node">
<title>20</title>
<ellipse fill="#c0c0f0" stroke="#c0c0f0" cx="459" cy="-90" rx="27" ry="18"/>
<text text-anchor="middle" x="459" y="-85.8" font-family="Times,serif" font-size="14.00">D</text>
</g>
<!-- 19&#45;&gt;20 -->
<g id="edge19" class="edge">
<title>19-&gt;20</title>
<path fill="none" stroke="black" d="M459,-143.7C459,-136.41 459,-127.73 459,-119.54"/>
<polygon fill="black" stroke="black" points="462.5,-119.62 459,-109.62 455.5,-119.62 462.5,-119.62"/>
<text text-anchor="middle" x="452" y="-130.33" font-family="Times,serif" font-size="14.00">v0</text>
</g>
<!-- 21 -->
<g id="node21" class="node">
<title>21</title>
<ellipse fill="#c0c0f0" stroke="#c0c0f0" cx="459" cy="-18" rx="27" ry="18"/>
<text text-anchor="middle" x="459" y="-13.8" font-family="Times,serif" font-size="14.00">C</text>
</g>
<!-- 20&#45;&gt;21 -->
<g id="edge20" class="edge">
<title>20-&gt;21</title>
<path fill="none" stroke="black" d="M459,-71.7C459,-64.41 459,-55.73 459,-47.54"/>
<polygon fill="black" stroke="black" points="462.5,-47.62 459,-37.62 455.5,-47.62 462.5,-47.62"/>
<text text-anchor="middle" x="452" y="-58.33" font-family="Times,serif" font-size="14.00">v0</text>
</g>
</g>
</svg>