<svg xmlns="http://www.w3.org/2000/svg" xmlns:xlink="http://www.w3.org/1999/xlink" width="422pt" height="620pt" viewBox="0.00 0.00 422.00 620.00">
<g id="graph0" class="graph" transform="scale(1 1) rotate(0) translate(4 616)">
<title>G</title>
<polygon fill="white" stroke="none" points="-4,4 -4,-616 418,-616 418,4 -4,4"/>
<!-- 1 -->
<g id="node1" class="node">
<title>1</title>
<ellipse fill="#c0c0c0" stroke="#c0c0c0" cx="171" cy="-594" rx="27" ry="18"/>
<text text-anchor="middle" x="171" y="-589.8" font-family="Times,serif" font-size="14.00">1</text>
</g>
<!-- 2 -->
<g id="node2" class="node">
<title>2</title>
<ellipse fill="#c0c0f0" stroke="#c0c0f0" cx="171" cy="-522" rx="27" ry="18"/>
<text text-anchor="middle" x="171" y="-517.8" font-family="Times,serif" font-size="14.00">A</text>
</g>
<!-- 1&#45;&gt;2 -->
<g id="edge1" class="edge">
<title>1-&gt;2</title>
<path fill="none" stroke="black" d="M171,-575.7C171,-568.41 171,-559.73 171,-551.54"/>
<polygon fill="black" stroke="black" points="174.5,-551.62 171,-541.62 167.5,-551.62 174.5,-551.62"/>
<text text-anchor="middle" x="111.5" y="-562.33" font-family="Times,serif" font-size="14.00">v0 v1 v2 v3 v4 v5 v6</text>
</g>
<!-- 3 -->
<g id="node3" class="node">
<title>3</title>
<ellipse fill="#c0c0c0" stroke="#c0c0c0" cx="171" cy="-450" rx="27" ry="18"/>
<text text-anchor="middle" x="171" y="-445.8" font-family="Times,serif" font-size="14.00">3</text>
</g>
<!-- 2&#45;&gt;3 -->
<g id="edge2" class="edge">
<title>2-&gt;3</title>
<path fill="none" stroke="black" d="M171,-503.7C171,-496.41 171,-487.73 171,-479.54"/>
<polygon fill="black" stroke="black" points="174.5,-479.62 171,-469.62 167.5,-479.62 174.5,-479.62"/>
</g>
<!-- 4 -->
<g id="node4" class="node">
<title>4</title>
<ellipse fill="#c0c0f0" stroke="#c0c0f0" cx="135" cy="-378" rx="27" ry="18"/>
<text text-anchor="middle" x="135" y="-373.8" font-family="Times,serif" font-size="14.00">B</text>
</g>
<!-- 3&#45;&gt;4 -->
<g id="edge3" class="edge">
<title>3-&gt;4</title>
<path fill="none" stroke="black" d="M162.65,-432.76C158.42,-424.55 153.19,-414.37 148.42,-405.09"/>
<polygon fill="black" stroke="black" points="151.68,-403.79 144,-396.49 145.46,-406.99 151.68,-403.79"/>
<text text-anchor="middle" x="137.23" y="-418.17" font-family="Times,serif" font-size="14.00">v3 v6</text>
</g>
<!-- 10 -->
<g id="node10" class="node">
<title>10</title>
<ellipse fill="#c0c0c0" stroke="#c0c0c0" cx="225" cy="-378" rx="27" ry="18"/>
<text text-anchor="middle" x="225" y="-373.8" font-family="Times,serif" font-size="14.00">10</text>
</g>
<!-- 3&#45;&gt;10 -->
<g id="edge9" class="edge">
<title>3-&gt;10</title>
<path fill="none" stroke="black" d="M182.98,-433.46C189.77,-424.67 198.4,-413.48 206.08,-403.53"/>
<polygon fill="black" stroke="black" points="208.79,-405.75 212.12,-395.69 203.25,-401.47 208.79,-405.75"/>
</g>
<!-- 5 -->
<g id="node5" class="node">
<title>5</title>
<ellipse fill="#c0c0c0" stroke="#c0c0c0" cx="99" cy="-306" rx="27" ry="18"/>
<text text-anchor="middle" x="99" y="-301.8" font-family="Times,serif" font-size="14.00">5</text>
</g>
<!-- 4&#45;&gt;5 -->
<g id="edge4" class="edge">
<title>4-&gt;5</title>
<path fill="none" stroke="black" d="M126.65,-360.76C122.42,-352.55 117.19,-342.37 112.42,-333.09"/>
<polygon fill="black" stroke="black" points="115.68,-331.79 108,-324.49 109.46,-334.99 115.68,-331.79"/>
</g>
<!-- 6 -->
<g id="node6" class="node">
<title>6</title>
<ellipse fill="#c0c0f0" stroke="#c0c0f0" cx="27" cy="-234" rx="27" ry="18"/>
<text text-anchor="middle" x="27" y="-229.8" font-family="Times,serif" font-size="14.00">C</text>
</g>
<!-- 5&#45;&gt;6 -->
<g id="edge5" class="edge">
<title>5-&gt;6</title>
<path fill="none" stroke="black" d="M84.08,-290.5C74.23,-280.92 61.14,-268.19 49.97,-257.34"/>
<polygon fill="black" stroke="black" points="52.59,-255 42.98,-250.54 47.71,-260.02 52.59,-255"/>
<text text-anchor="middle" x="55.8" y="-274" font-family="Times,serif" font-size="14.00">v6</text>
</g>
<!-- 8 -->
<g id="node8" class="node">
<title>8</title>
<ellipse fill="#c0c0f0" stroke="#c0c0f0" cx="99" cy="-234" rx="27" ry="18"/>
<text text-anchor="middle" x="99" y="-229.8" font-family="Times,serif" font-size="14.00">D</text>
</g>
<!-- 5&#45;&gt;8 -->
<g id="edge7" class="edge">
<title>5-&gt;8</title>
<path fill="none" stroke="black" d="M99,-287.7C99,-280.41 99,-271.73 99,-263.54"/>
<polygon fill="black" stroke="black" points="102.5,-263.62 99,-253.62 95.5,-263.62 102.5,-263.62"/>
<text text-anchor="middle" x="92" y="-274.33" font-family="Times,serif" font-size="14.00">v3</text>
</g>
<!-- 7 -->
<g id="node7" class="node">
<title>7</title>
<ellipse fill="#c0c0f0" stroke="#c0c0f0" cx="27" cy="-162" rx="27" ry="18"/>
<text text-anchor="middle" x="27" y="-157.8" font-family="Times,serif" font-size="14.00">D</text>
</g>
<!-- 6&#45;&gt;7 -->
<g id="edge6" class="edge">
<title>6-&gt;7</title>
<path fill="none" stroke="black" d="M27,-215.7C27,-208.41 27,-199.73 27,-191.54"/>
<polygon fill="black" stroke="black" points="30.5,-191.62 27,-181.62 23.5,-191.62 30.5,-191.62"/>
<text text-anchor="middle" x="20" y="-202.33" font-family="Times,serif" font-size="14.00">v6</text>
</g>
<!-- 9 -->
<g id="node9" class="node">
<title>9</title>
<ellipse fill="#c0c0f0" stroke="#c0c0f0" cx="99" cy="-162" rx="27" ry="18"/>
<text text-anchor="middle" x="99" y="-157.8" font-family="Times,serif" font-size="14.00">C</text>
</g>
<!-- 8&#45;&gt;9 -->
<g id="edge8" class="edge">
<title>8-&gt;9</title>
<path fill="none" stroke="black" d="M99,-215.7C99,-208.41 99,-199.73 99,-191.54"/>
<polygon fill="black" stroke="black" points="102.5,-191.62 99,-181.62 95.5,-191.62 102.5,-191.62"/>
<text text-anchor="middle" x="92" y="-202.33" font-family="Times,serif" font-size="14.00">v3</text>
</g>
<!-- 11 -->
<g id="node11" class="node">
<title>11</title>
<ellipse fill="#c0c0c0" stroke="#c0c0c0" cx="225" cy="-306" rx="27" ry="18"/>
<text text-anchor="middle" x="225" y="-301.8" font-family="Times,serif" font-size="14.00">11</text>
</g>
<!-- 10&#45;&gt;11 -->
<g id="edge10" class="edge">
<title>10-&gt;11</title>
<path fill="none" stroke="black" d="M225,-359.7C225,-352.41 225,-343.73 225,-335.54"/>
<polygon fill="black" stroke="black" points="228.5,-335.62 225,-325.62 221.5,-335.62 228.5,-335.62"/>
</g>
<!-- 21 -->
<g id="node21" class="node">
<title>21</title>
<ellipse fill="#c0c0f0" stroke="#c0c0f0" cx="306" cy="-306" rx="27" ry="18"/>
<text text-anchor="middle" x="306" y="-301.8" font-family="Times,serif" font-size="14.00">R</text>
</g>
<!-- 10&#45;&gt;21 -->
<g id="edge20" class="edge">
<title>10-&gt;21</title>
<path fill="none" stroke="black" d="M241,-363.17C252.54,-353.2 268.33,-339.56 281.45,-328.21"/>
<polygon fill="black" stroke="black" points="283.61,-330.98 288.89,-321.79 279.03,-325.68 283.61,-330.98"/>
<text text-anchor="middle" x="249.85" y="-346.12" font-family="Times,serif" font-size="14.00">v0 v1</text>
</g>
<!-- 12 -->
<g id="node12" class="node">
<title>12</title>
<ellipse fill="#c0c0f0" stroke="#c0c0f0" cx="171" cy="-234" rx="27" ry="18"/>
<text text-anchor="middle" x="171" y="-229.8" font-family="Times,serif" font-size="14.00">P</text>
</g>
<!-- 11&#45;&gt;12 -->
<g id="edge11" class="edge">
<title>11-&gt;12</title>
<path fill="none" stroke="black" d="M213.02,-289.46C206.23,-280.67 197.6,-269.48 189.92,-259.53"/>
<polygon fill="black" stroke="black" points="192.75,-257.47 183.88,-251.69 187.21,-261.75 192.75,-257.47"/>
<text text-anchor="middle" x="182.32" y="-274.28" font-family="Times,serif" font-size="14.00">v4 v5</text>
</g>
<!-- 18 -->
<g id="node18" class="node">
<title>18</title>
<ellipse fill="#c0c0f0" stroke="#c0c0f0" cx="243" cy="-234" rx="27" ry="18"/>
<text text-anchor="middle" x="243" y="-229.8" font-family="Times,serif" font-size="14.00">V</text>
</g>
<!-- 11&#45;&gt;18 -->
<g id="edge17" class="edge">
<title>11-&gt;18</title>
<path fill="none" stroke="black" d="M229.36,-288.05C231.3,-280.49 233.65,-271.37 235.84,-262.85"/>
<polygon fill="black" stroke="black" points="239.21,-263.81 238.31,-253.25 232.43,-262.07 239.21,-263.81"/>
<text text-anchor="middle" x="226.97" y="-274.33" font-family="Times,serif" font-size="14.00">v2</text>
</g>
<!-- 13 -->
<g id="node13" class="node">
<title>13</title>
<ellipse fill="#c0c0c0" stroke="#c0c0c0" cx="171" cy="-162" rx="27" ry="18"/>
<text text-anchor="middle" x="171" y="-157.8" font-family="Times,serif" font-size="14.00">13</text>
</g>
<!-- 12&#45;&gt;13 -->
<g id="edge12" class="edge">
<title>12-&gt;13</title>
<path fill="none" stroke="black" d="M171,-215.7C171,-208.41 171,-199.73 171,-191.54"/>
<polygon fill="black" stroke="black" points="174.5,-191.62 171,-181.62 167.5,-191.62 174.5,-191.62"/>
</g>
<!-- 14 -->
<g id="node14" class="node">
<title>14</title>
<ellipse fill="#c0c0f0" stroke="#c0c0f0" cx="99" cy="-90" rx="27" ry="18"/>
<text text-anchor="middle" x="99" y="-85.8" font-family="Times,serif" font-size="14.00">C</text>
</g>
<!-- 13&#45;&gt;14 -->
<g id="edge13" class="edge">
<title>13-&gt;14</title>
<path fill="none" stroke="black" d="M156.08,-146.5C146.23,-136.92 133.14,-124.19 121.97,-113.34"/>
<polygon fill="black" stroke="black" points="124.59,-111 114.98,-106.54 119.71,-116.02 124.59,-111"/>
<text text-anchor="middle" x="127.8" y="-130" font-family="Times,serif" font-size="14.00">v5</text>
</g>
<!-- 16 -->
<g id="node16" class="node">
<title>16</title>
<ellipse fill="#c0c0f0" stroke="#c0c0f0" cx="171" cy="-90" rx="27" ry="18"/>
<text text-anchor="middle" x="171" y="-85.8" font-family="Times,serif" font-size="14.00">D</text>
</g>
<!-- 13&#45;&gt;16 -->
<g id="edge15" class="edge">
<title>13-&gt;16</title>
<path fill="none" stroke="black" d="M171,-143.7C171,-136.41 171,-127.73 171,-119.54"/>
<polygon fill="black" stroke="black" points="174.5,-119.62 171,-109.62 167.5,-119.62 174.5,-119.62"/>
<text text-anchor="middle" x="164" y="-130.33" font-family="Times,serif" font-size="14.00">v4</text>
</g>
<!-- 15 -->
<g id="node15" class="node">
<title>15</title>
<ellipse fill="#c0c0f0" stroke="#c0c0f0" cx="99" cy="-18" rx="27" ry="18"/>
<text text-anchor="middle" x="99" y="-13.8" font-family="Times,serif" font-size="14.00">D</text>
</g>
<!-- 14&#45;&gt;15 -->
<g id="edge14" class="edge">
<title>14-&gt;15</title>
<path fill="none" stroke="black" d="M99,-71.7C99,-64.41 99,-55.73 99,-47.54"/>
<polygon fill="black" stroke="black" points="102.5,-47.62 99,-37.62 95.5,-47.62 102.5,-47.62"/>
<text text-anchor="middle" x="92" y="-58.33" font-family="Times,serif" font-size="14.00">v5</text>
</g>
<!-- 17 -->
<g id="node17" class="node">
<title>17</title>
<ellipse fill="#c0c0f0" stroke="#c0c0f0" cx="171" cy="-18" rx="27" ry="18"/>
<text text-anchor="middle" x="171" y="-13.8" font-family="Times,serif" font-size="14.00">C</text>
</g>
<!-- 16&#45;&gt;17 -->
<g id="edge16" class="edge">
<title>16-&gt;17</title>
<path fill="none" stroke="black" d="M171,-71.7C171,-64.41 171,-55.73 171,-47.54"/>
<polygon fill="black" stroke="black" points="174.5,-47.62 171,-37.62 167.5,-47.62 174.5,-47.62"/>
<text text-anchor="middle" x="164" y="-58.33" font-family="Times,serif" font-size="14.00">v4</text>
</g>
<!-- 19 -->
<g id="node19" class="node">
<title>19</title>
<ellipse fill="#c0c0f0" stroke="#c0c0f0" cx="243" cy="-162" rx="27" ry="18"/>
<text text-anchor="middle" x="243" y="-157.8" font-family="Times,serif" font-size="14.00">D</text>
</g>
<!-- 18&#45;&gt;19 -->
<g id="edge18" class="edge">
<title>18-&gt;19</title>
<path fill="none" stroke="black" d="M243,-215.7C243,-208.41 243,-199.73 243,-191.54"/>
<polygon fill="black" stroke="black" points="246.5,-191.62 243,-181.62 239.5,-191.62 246.5,-191.62"/>
<text text-anchor="middle" x="236" y="-202.33" font-family="Times,serif" font-size="14.00">v2</text>
</g>
<!-- 20 -->
<g id="node20" class="node">
<title>20</title>
<ellipse fill="#c0c0f0" stroke="#c0c0f0" cx="243" cy="-90" rx="27" ry="18"/>
<text text-anchor="middle" x="243" y="-85.8" font-family="Times,serif" font-size="14.00">C</text>
</g>
<!-- 19&#45;&gt;20 -->
<g id="edge19" class="edge">
<title>19-&gt;20</title>
<path fill="none" stroke="black" d="M243,-143.7C243,-136.41 243,-127.73 243,-119.54"/>
<polygon fill="black" stroke="black" points="246.5,-119.62 243,-109.62 239.5,-119.62 246.5,-119.62"/>
<text text-anchor="middle" x="236" y="-130.33" font-family="Times,serif" font-size="14.00">v2</text>
</g>
<!-- 22 -->
<g id="node22" class="node">
<title>22</title>
<ellipse fill="#c0c0c0" stroke="#c0c0c0" cx="315" cy="-234" rx="27" ry="18"/>
<text text-anchor="middle" x="315" y="-229.8" font-family="Times,serif" font-size="14.00">22</text>
</g>
<!-- 21&#45;&gt;22 -->
<g id="edge21" class="edge">
<title>21-&gt;22</title>
<path fill="none" stroke="black" d="M308.22,-287.7C309.17,-280.32 310.3,-271.52 311.37,-263.25"/>
<polygon fill="black" stroke="black" points="314.8,-263.97 312.61,-253.61 307.86,-263.08 314.8,-263.97"/>
</g>
<!-- 23 -->
<g id="node23" class="node">
<title>23</title>
<ellipse fill="#c0c0f0" stroke="#c0c0f0" cx="315" cy="-162" rx="27" ry="18"/>
<text text-anchor="middle" x="315" y="-157.8" font-family="Times,serif" font-size="14.00">D</text>
</g>
<!-- 22&#45;&gt;23 -->
<g id="edge22" class="edge">
<title>22-&gt;23</title>
<path fill="none" stroke="black" d="M315,-215.7C315,-208.41 315,-199.73 315,-191.54"/>
<polygon fill="black" stroke="black" points="318.5,-191.62 315,-181.62 311.5,-191.62 318.5,-191.62"/>
<text text-anchor="middle" x="308" y="-202.33" font-family="Times,serif" font-size="14.00">v1</text>
</g>
<!-- 25 -->
<g id="node25" class="node">
<title>25</title>
<ellipse fill="#c0c0f0" stroke="#c0c0f0" cx="387" cy="-162" rx="27" ry="18"/>
<text text-anchor="middle" x="387" y="-157.8" font-family="Times,serif" font-size="14.00">Z</text>
</g>
<!-- 22&#45;&gt;25 -->
<g id="edge24" class="edge">
<title>22-&gt;25</title>
<path fill="none" stroke="black" d="M329.92,-218.5C339.77,-208.92 352.86,-196.19 364.03,-185.34"/>
<polygon fill="black" stroke="black" points="366.29,-188.02 371.02,-178.54 361.41,-183 366.29,-188.02"/>
<text text-anchor="middle" x="344.2" y="-202" font-family="Times,serif" font-size="14.00">v0</text>
</g>
<!-- 24 -->
<g id="node24" class="node">
<title>24</title>
<ellipse fill="#c0c0f0" stroke="#c0c0f0" cx="315" cy="-90" rx="27" ry="18"/>
<text text-anchor="middle" x="315" y="-85.8" font-family="Times,serif" font-size="14.00">C</text>
</g>
<!-- 23&#45;&gt;24 -->
<g id="edge23" class="edge">
<title>23-&gt;24</title>
<path fill="none" stroke="black" d="M315,-143.7C315,-136.41 315,-127.73 315,-119.54"/>
<polygon fill="black" stroke="black" points="318.5,-119.62 315,-109.62 311.5,-119.62 318.5,-119.62"/>
<text text-anchor="middle" x="308" y="-130.33" font-family="Times,serif" font-size="14.00">v1</text>
</g>
<!-- 26 -->
<g id="node26" class="node">
<title>26</title>
<ellipse fill="#c0c0f0" stroke="#c0c0f0" cx="387" cy="-90" rx="27" ry="18"/>
<text text-anchor="middle" x="387" y="-85.8" font-family="Times,serif" font-size="14.00">D</text>
</g>
<!-- 25&#45;&gt;26 -->
<g id="edge25" class="edge">
<title>25-&gt;26</title>
<path fill="none" stroke="black" d="M387,-143.7C387,-136.41 387,-127.73 387,-119.54"/>
<polygon fill="black" stroke="black" points="390.5,-119.62 387,-109.62 383.5,-119.62 390.5,-119.62"/>
<text text-anchor="middle" x="380" y="-130.33" font-family="Times,serif" font-size="14.00">v0</text>
</g>
<!-- 27 -->
<g id="node27" class="node">
<title>27</title>
<ellipse fill="#c0c0f0" stroke="#c0c0f0" cx="387" cy="-18" rx="27" ry="18"/>
<text text-anchor="middle" x="387" y="-13.8" font-family="Times,serif" font-size="14.00">C</text>
</g>
<!-- 26&#45;&gt;27 -->
<g id="edge26" class="edge">
<title>26-&gt;27</title>
<path fill="none" stroke="black" d="M387,-71.7C387,-64.41 387,-55.73 387,-47.54"/>
<polygon fill="black" stroke="black" points="390.5,-47.62 387,-37.62 383.5,-47.62 390.5,-47.62"/>
<text text-anchor="middle" x="380" y="-58.33" font-family="Times,serif" font-size="14.00">v0</text>
</g>
</g>
</svg>