<svg xmlns="http://www.w3.org/2000/svg" xmlns:xlink="http://www.w3.org/1999/xlink" width="140pt" height="836pt" viewBox="0.00 0.00 139.66 836.00">
<g id="graph0" class="graph" transform="scale(1 1) rotate(0) translate(4 832)">
<title>G</title>
<polygon fill="white" stroke="none" points="-4,4 -4,-832 135.66,-832 135.66,4 -4,4"/>
<!-- 1 -->
<g id="node1" class="node">
<title>1</title>
<ellipse fill="#c0c0f0" stroke="#c0c0f0" cx="66.53" cy="-810" rx="37.86" ry="18"/>
<text text-anchor="middle" x="66.53" y="-805.8" font-family="Times,serif" font-size="14.00">(multi)</text>
</g>
<!-- 2 -->
<g id="node2" class="node">
<title>2</title>
<ellipse fill="#c0c0f0" stroke="#c0c0f0" cx="30.53" cy="-738" rx="27.13" ry="18"/>
<text text-anchor="middle" x="30.53" y="-733.8" font-family="Times,serif" font-size="14.00">(v4)</text>
</g>
<!-- 1&#45;&gt;2 -->
<g id="edge1" class="edge">
<title>1-&gt;2</title>
<path fill="none" stroke="black" d="M57.82,-792.05C53.69,-784.03 48.67,-774.26 44.06,-765.3"/>
<polygon fill="black" stroke="black" points="47.3,-763.95 39.61,-756.65 41.07,-767.15 47.3,-763.95"/>
</g>
<!-- 9 -->
<g id="node9" class="node">
<title>9</title>
<ellipse fill="#c0c0f0" stroke="#c0c0f0" cx="102.53" cy="-738" rx="27.13" ry="18"/>
<text text-anchor="middle" x="102.53" y="-733.8" font-family="Times,serif" font-size="14.00">(v6)</text>
</g>
<!-- 1&#45;&gt;9 -->
<g id="edge8" class="edge">
<title>1-&gt;9</title>
<path fill="none" stroke="black" d="M75.25,-792.05C79.38,-784.03 84.4,-774.26 89.01,-765.3"/>
<polygon fill="black" stroke="black" points="91.99,-767.15 93.46,-756.65 85.77,-763.95 91.99,-767.15"/>
</g>
<!-- 3 -->
<g id="node3" class="node">
<title>3</title>
<ellipse fill="#c0c0f0" stroke="#c0c0f0" cx="30.53" cy="-666" rx="27" ry="18"/>
<text text-anchor="middle" x="30.53" y="-661.8" font-family="Times,serif" font-size="14.00">a </text>
</g>
<!-- 2&#45;&gt;3 -->
<g id="edge2" class="edge">
<title>2-&gt;3</title>
<path fill="none" stroke="black" d="M30.53,-719.7C30.53,-712.41 30.53,-703.73 30.53,-695.54"/>
<polygon fill="black" stroke="black" points="34.03,-695.62 30.53,-685.62 27.03,-695.62 34.03,-695.62"/>
</g>
<!-- 4 -->
<g id="node4" class="node">
<title>4</title>
<ellipse fill="#c0c0f0" stroke="#c0c0f0" cx="29.53" cy="-594" rx="29.53" ry="18"/>
<text text-anchor="middle" x="29.53" y="-589.8" font-family="Times,serif" font-size="14.00">nice </text>
</g>
<!-- 3&#45;&gt;4 -->
<g id="edge3" class="edge">
<title>3-&gt;4</title>
<path fill="none" stroke="black" d="M30.29,-647.7C30.18,-640.41 30.06,-631.73 29.94,-623.54"/>
<polygon fill="black" stroke="black" points="33.44,-623.57 29.8,-613.62 26.44,-623.67 33.44,-623.57"/>
</g>
<!-- 5 -->
<g id="node5" class="node">
<title>5</title>
<ellipse fill="#f0c0c0" stroke="#f0c0c0" cx="29.53" cy="-522" rx="27" ry="18"/>
<text text-anchor="middle" x="29.53" y="-517.8" font-family="Times,serif" font-size="14.00">red </text>
</g>
<!-- 4&#45;&gt;5 -->
<g id="edge4" class="edge">
<title>4-&gt;5</title>
<path fill="none" stroke="black" d="M29.53,-575.7C29.53,-568.41 29.53,-559.73 29.53,-551.54"/>
<polygon fill="black" stroke="black" points="33.03,-551.62 29.53,-541.62 26.03,-551.62 33.03,-551.62"/>
</g>
<!-- 6 -->
<g id="node6" class="node">
<title>6</title>
<ellipse fill="#f0c0c0" stroke="#f0c0c0" cx="29.53" cy="-450" rx="27" ry="18"/>
<text text-anchor="middle" x="29.53" y="-445.8" font-family="Times,serif" font-size="14.00">pen</text>
</g>
<!-- 5&#45;&gt;6 -->
<g id="edge5" class="edge">
<title>5-&gt;6</title>
<path fill="none" stroke="black" d="M29.53,-503.7C29.53,-496.41 29.53,-487.73 29.53,-479.54"/>
<polygon fill="black" stroke="black" points="33.03,-479.62 29.53,-469.62 26.03,-479.62 33.03,-479.62"/>
</g>
<!-- 7 -->
<g id="node7" class="node">
<title>7</title>
<ellipse fill="#f0c0c0" stroke="#f0c0c0" cx="29.53" cy="-378" rx="27" ry="18"/>
<text text-anchor="middle" x="29.53" y="-373.8" font-family="Times,serif" font-size="14.00">hat</text>
</g>
<!-- 6&#45;&gt;7 -->
<g id="edge6" class="edge">
<title>6-&gt;7</title>
<path fill="none" stroke="black" d="M29.53,-431.7C29.53,-424.41 29.53,-415.73 29.53,-407.54"/>
<polygon fill="black" stroke="black" points="33.03,-407.62 29.53,-397.62 26.03,-407.62 33.03,-407.62"/>
</g>
<!-- 8 -->
<g id="node8" class="node">
<title>8</title>
<ellipse fill="#c0c0f0" stroke="#c0c0f0" cx="29.53" cy="-306" rx="27" ry="18"/>
<text text-anchor="middle" x="29.53" y="-301.8" font-family="Times,serif" font-size="14.00">cat</text>
</g>
<!-- 7&#45;&gt;8 -->
<g id="edge7" class="edge">
<title>7-&gt;8</title>
<path fill="none" stroke="black" d="M29.53,-359.7C29.53,-352.41 29.53,-343.73 29.53,-335.54"/>
<polygon fill="black" stroke="black" points="33.03,-335.62 29.53,-325.62 26.03,-335.62 33.03,-335.62"/>
</g>
<!-- 10 -->
<g id="node10" class="node">
<title>10</title>
<ellipse fill="#c0c0f0" stroke="#c0c0f0" cx="103.53" cy="-666" rx="27" ry="18"/>
<text text-anchor="middle" x="103.53" y="-661.8" font-family="Times,serif" font-size="14.00">a </text>
</g>
<!-- 9&#45;&gt;10 -->
<g id="edge9" class="edge">
<title>9-&gt;10</title>
<path fill="none" stroke="black" d="M102.78,-719.7C102.89,-712.41 103.01,-703.73 103.13,-695.54"/>
<polygon fill="black" stroke="black" points="106.63,-695.67 103.27,-685.62 99.63,-695.57 106.63,-695.67"/>
</g>
<!-- 11 -->
<g id="node11" class="node">
<title>11</title>
<ellipse fill="#f0c0c0" stroke="#f0c0c0" cx="104.53" cy="-594" rx="27.12" ry="18"/>
<text text-anchor="middle" x="104.53" y="-589.8" font-family="Times,serif" font-size="14.00">nice</text>
</g>
<!-- 10&#45;&gt;11 -->
<g id="edge10" class="edge">
<title>10-&gt;11</title>
<path fill="none" stroke="black" d="M103.78,-647.7C103.89,-640.41 104.01,-631.73 104.13,-623.54"/>
<polygon fill="black" stroke="black" points="107.63,-623.67 104.27,-613.62 100.63,-623.57 107.63,-623.67"/>
</g>
<!-- 12 -->
<g id="node12" class="node">
<title>12</title>
<ellipse fill="#f0c0c0" stroke="#f0c0c0" cx="104.53" cy="-522" rx="27" ry="18"/>
<text text-anchor="middle" x="104.53" y="-517.8" font-family="Times,serif" font-size="14.00">red </text>
</g>
<!-- 11&#45;&gt;12 -->
<g id="edge11" class="edge">
<title>11-&gt;12</title>
<path fill="none" stroke="black" d="M104.53,-575.7C104.53,-568.41 104.53,-559.73 104.53,-551.54"/>
<polygon fill="black" stroke="black" points="108.03,-551.62 104.53,-541.62 101.03,-551.62 108.03,-551.62"/>
</g>
<!-- 13 -->
<g id="node13" class="node">
<title>13</title>
<ellipse fill="#f0c0c0" stroke="#f0c0c0" cx="104.53" cy="-450" rx="27" ry="18"/>
<text text-anchor="middle" x="104.53" y="-445.8" font-family="Times,serif" font-size="14.00">pen</text>
</g>
<!-- 12&#45;&gt;13 -->
<g id="edge12" class="edge">
<title>12-&gt;13</title>
<path fill="none" stroke="black" d="M104.53,-503.7C104.53,-496.41 104.53,-487.73 104.53,-479.54"/>
<polygon fill="black" stroke="black" points="108.03,-479.62 104.53,-469.62 101.03,-479.62 108.03,-479.62"/>
</g>
<!-- 14 -->
<g id="node14" class="node">
<title>14</title>
<ellipse fill="#f0c0c0" stroke="#f0c0c0" cx="104.53" cy="-378" rx="27" ry="18"/>
<text text-anchor="middle" x="104.53" y="-373.8" font-family="Times,serif" font-size="14.00">hat</text>
</g>
<!-- 13&#45;&gt;14 -->
<g id="edge13" class="edge">
<title>13-&gt;14</title>
<path fill="none" stroke="black" d="M104.53,-431.7C104.53,-424.41 104.53,-415.73 104.53,-407.54"/>
<polygon fill="black" stroke="black" points="108.03,-407.62 104.53,-397.62 101.03,-407.62 108.03,-407.62"/>
</g>
<!-- 15 -->
<g id="node15" class="node">
<title>15</title>
<ellipse fill="#c0c0f0" stroke="#c0c0f0" cx="104.53" cy="-306" rx="27" ry="18"/>
<text text-anchor="middle" x="104.53" y="-301.8" font-family="Times,serif" font-size="14.00">cat</text>
</g>
<!-- 14&#45;&gt;15 -->
<g id="edge14" class="edge">
<title>14-&gt;15</title>
<path fill="none" stroke="black" d="M104.53,-359.7C104.53,-352.41 104.53,-343.73 104.53,-335.54"/>
<polygon fill="black" stroke="black" points="108.03,-335.62 104.53,-325.62 101.03,-335.62 108.03,-335.62"/>
</g>
<!-- 16 -->
<g id="node16" class="node">
<title>16</title>
<ellipse fill="#c0c0f0" stroke="#c0c0f0" cx="104.53" cy="-234" rx="27" ry="18"/>
<text text-anchor="middle" x="104.53" y="-229.8" font-family="Times,serif" font-size="14.00"> </text>
</g>
<!-- 15&#45;&gt;16 -->
<g id="edge15" class="edge">
<title>15-&gt;16</title>
<path fill="none" stroke="black" d="M104.53,-287.7C104.53,-280.41 104.53,-271.73 104.53,-263.54"/>
<polygon fill="black" stroke="black" points="108.03,-263.62 104.53,-253.62 101.03,-263.62 108.03,-263.62"/>
</g>
<!-- 17 -->
<g id="node17" class="node">
<title>17</title>
<ellipse fill="#c0c0f0" stroke="#c0c0f0" cx="104.53" cy="-162" rx="27" ry="18"/>
<text text-anchor="middle" x="104.53" y="-157.8" font-family="Times,serif" font-size="14.00">is </text>
</g>
<!-- 16&#45;&gt;17 -->
<g id="edge16" class="edge">
<title>16-&gt;17</title>
<path fill="none" stroke="black" d="M104.53,-215.7C104.53,-208.41 104.53,-199.73 104.53,-191.54"/>
<polygon fill="black" stroke="black" points="108.03,-191.62 104.53,-181.62 101.03,-191.62 108.03,-191.62"/>
</g>
<!-- 18 -->
<g id="node18" class="node">
<title>18</title>
<ellipse fill="#f0c0c0" stroke="#f0c0c0" cx="104.53" cy="-90" rx="27" ry="18"/>
<text text-anchor="middle" x="104.53" y="-85.8" font-family="Times,serif" font-size="14.00">cat</text>
</g>
<!-- 17&#45;&gt;18 -->
<g id="edge17" class="edge">
<title>17-&gt;18</title>
<path fill="none" stroke="black" d="M104.53,-143.7C104.53,-136.41 104.53,-127.73 104.53,-119.54"/>
<polygon fill="black" stroke="black" points="108.03,-119.62 104.53,-109.62 101.03,-119.62 108.03,-119.62"/>
</g>
<!-- 19 -->
<g id="node19" class="node">
<title>19</title>
<ellipse fill="#c0c0f0" stroke="#c0c0f0" cx="104.53" cy="-18" rx="27.12" ry="18"/>
<text text-anchor="middle" x="104.53" y="-13.8" font-family="Times,serif" font-size="14.00">nice</text>
</g>
<!-- 18&#45;&gt;19 -->
<g id="edge18" class="edge">
<title>18-&gt;19</title>
<path fill="none" stroke="black" d="M104.53,-71.7C104.53,-64.41 104.53,-55.73 104.53,-47.54"/>
<polygon fill="black" stroke="black" points="108.03,-47.62 104.53,-37.62 101.03,-47.62 108.03,-47.62"/>
</g>
</g>
</svg>